# xmcd
#
# Track frame offsets:
# 150
# 20625
# 38828
# 56467
# 73146
# 88047
# 102910
# 120758
# 135474
# 153785
# 171582
# 188996
# 210544
# 244984
# 294348
#
# Disc length: 4471 seconds
#
#
# Revision: 0
# Processed by: cddbd v1.5PL3 Copyright (c) Steve Scherf et al.
# Submitted via: FreeRIP 2.60 
#
DISCID=cf11750f
DTITLE=Ari Gold - Space Under Sun
DYEAR=2004
DGENRE=Rhythmic Soul
TTITLE0=Space under sun
TTITLE1=Funck that ship
TTITLE2=Fan-tastic
TTITLE3=More than enough
TTITLE4=Intimate
TTITLE5=Caught
TTITLE6=Bashert ( meant to be )
TTITLE7=He's on my team
TTITLE8=Do you really want 2 hurt me
TTITLE9=Wave of you
TTITLE10=Back to me
TTITLE11=Re:union
TTITLE12=Love will take over
TTITLE13=Wave of you ( bonnus track )
TTITLE14=Extra Bonus Clip - Pictures
EXTD=
EXTT0=
EXTT1=
EXTT2=
EXTT3=
EXTT4=
EXTT5=
EXTT6=
EXTT7=
EXTT8=
EXTT9=
EXTT10=
EXTT11=
EXTT12=
EXTT13=
EXTT14=
PLAYORDER=
